<svg width="346" height="201" viewBox="0 0 346 201" fill="none" xmlns="http://www.w3.org/2000/svg">
<path opacity="0.1" d="M306.118 107.348C309.414 105.356 313.629 107.681 313.703 111.53L314.405 147.882L275 126.151L306.118 107.348Z" fill="#18E2CE"/>
<path opacity="0.1" d="M27.4105 148.492C28.5137 144.803 33.1975 143.693 35.8389 146.494L60.7808 172.949L16.9936 183.326L27.4105 148.492Z" fill="#008DF0"/>
<g opacity="0.1" filter="url(#filter0_d_1010_24244)">
<path d="M82 97V78.5H165L169.5 88L165.5 97H82Z" fill="#FFB838"/>
<path d="M161.5 70.5L166.715 59.7451C168.002 57.0886 166.067 54 163.115 54H95C87.8203 54 82 59.8203 82 67V78.5H165L161.5 70.5Z" fill="#FFB838"/>
<path d="M82 97H165.5L161.5 104.5L169.5 122L161.5 139.5L166.329 149.802C167.573 152.455 165.637 155.5 162.707 155.5H95C87.8203 155.5 82 149.68 82 142.5V97Z" fill="#FFB838"/>
</g>
<g opacity="0.1" filter="url(#filter1_d_1010_24244)">
<path d="M263.5 116V97.5H180.5L176 107L180 116H263.5Z" fill="#FFB838"/>
<path d="M184 89.5L178.785 78.7451C177.498 76.0886 179.433 73 182.385 73H250.5C257.68 73 263.5 78.8203 263.5 86V97.5H180.5L184 89.5Z" fill="#FFB838"/>
<path d="M263.5 116H180L184 123.5L176 141L184 158.5L179.171 168.802C177.927 171.455 179.863 174.5 182.793 174.5H250.5C257.68 174.5 263.5 168.68 263.5 161.5V116Z" fill="#FFB838"/>
</g>
<path d="M145.813 116.598L144.423 108.883L138.37 110.356L132.414 77.2876L121.464 79.9523L104.906 118.499L106.296 126.215L131.53 120.074L133.254 129.65L141.484 127.647L139.759 118.071L145.813 116.598ZM114.156 116.248L125.897 88.7973L130.14 112.358L114.156 116.248Z" fill="#FFB838"/>
<path d="M151.444 115.562C154.135 131.152 163.772 139.739 176.997 136.654C190.222 133.569 196.332 121.309 193.641 105.72C190.938 90.0612 180.719 81.3942 167.971 84.3677C155.223 87.3411 148.74 99.9039 151.444 115.562ZM160.033 113.559C157.973 101.625 161.477 93.991 169.317 92.1624C177.224 90.3178 182.991 95.7896 185.051 107.723C187.064 119.381 183.56 127.015 175.652 128.86C167.812 130.688 162.045 125.216 160.033 113.559Z" fill="#DA4175"/>
<path d="M229.663 155.865L231.01 148.142L224.946 146.713L230.721 113.613L219.752 111.027L191.425 138.811L190.078 146.534L215.355 152.493L213.683 162.078L221.927 164.021L223.599 154.436L229.663 155.865ZM200.691 140.995L220.817 121.186L216.702 144.769L200.691 140.995Z" fill="#008DF0"/>
<g opacity="0.1">
<path d="M37.6957 83.6442C36.8839 82.6023 36.0837 80.9126 35.2933 78.5764L29.7441 60.4137C28.6714 56.8708 27.9519 54.316 27.5857 52.7503C27.087 50.6182 27.2544 48.8261 28.0931 47.3709C28.9317 45.9157 30.2642 44.9735 32.0863 44.5473C32.1834 44.5246 32.2606 44.529 32.3558 44.5106C32.4484 44.4851 32.5156 44.4469 32.61 44.4248C34.4368 43.9976 36.0442 44.2521 37.4457 45.1824C38.8391 46.1155 39.7888 47.6473 40.2875 49.7794C40.654 51.3461 41.1422 53.9549 41.7519 57.6051L44.834 76.3449C45.1617 78.7893 45.1911 80.6593 44.9285 81.9524C44.6596 83.248 43.8342 84.0589 42.4461 84.3836C42.1888 84.4437 41.9436 84.4552 41.7021 84.4659C41.4809 84.5635 41.2561 84.6619 40.996 84.7227C39.6107 85.0468 38.5085 84.6867 37.6957 83.6442Z" fill="#FFB838"/>
<path d="M39.2094 94.0135C40.196 92.6067 41.5727 91.6952 43.3375 91.2824C45.1059 90.8688 46.7311 91.0782 48.2093 91.9066C49.6899 92.7412 50.6183 93.952 50.9905 95.5437C51.4178 97.3704 51.1125 98.9361 50.0738 100.25C49.034 101.563 47.6602 102.42 45.9492 102.82C44.2677 103.213 42.6758 103.042 41.1735 102.311C39.6711 101.579 38.7115 100.314 38.2907 98.5151C37.9187 96.9243 38.223 95.4252 39.2094 94.0135Z" fill="#FFB838"/>
</g>
<g opacity="0.1">
<path d="M293.737 47.9194C293.524 47.1437 293.469 46.0063 293.572 44.5078L294.7 32.9969C294.926 30.7539 295.119 29.149 295.279 28.1829C295.498 26.8674 296.011 25.8989 296.823 25.2769C297.635 24.6548 298.605 24.4367 299.729 24.6234C299.789 24.6333 299.831 24.6538 299.889 24.6658C299.947 24.6731 299.994 24.6673 300.052 24.677C301.179 24.8641 302.024 25.3833 302.594 26.2342C303.159 27.0849 303.335 28.1684 303.117 29.4839C302.956 30.4505 302.62 32.0317 302.109 34.2268L299.458 45.485C299.071 46.9361 298.65 47.9945 298.2 48.6602C297.745 49.3258 297.091 49.5886 296.235 49.4465C296.076 49.4201 295.936 49.3692 295.797 49.3187C295.65 49.3218 295.501 49.3246 295.34 49.2979C294.486 49.1561 293.95 48.6958 293.737 47.9194Z" fill="#008DF0"/>
<path d="M292.162 54.1041C293.046 53.5439 294.033 53.3534 295.122 53.5341C296.213 53.7153 297.078 54.2132 297.716 55.0248C298.353 55.8405 298.592 56.7385 298.429 57.7206C298.242 58.8476 297.704 59.6566 296.812 60.1522C295.92 60.6472 294.947 60.8078 293.892 60.6326C292.854 60.4603 291.999 59.9916 291.326 59.2291C290.652 58.4661 290.408 57.5303 290.593 56.4204C290.755 55.4389 291.277 54.6671 292.162 54.1041Z" fill="#008DF0"/>
</g>
<circle opacity="0.2" cx="140.5" cy="30.5" r="12.5" fill="#6D3D91"/>
<circle opacity="0.2" cx="339.5" cy="144.5" r="6.5" fill="#6D3D91"/>
<defs>
<filter id="filter0_d_1010_24244" x="79" y="52" width="95.5" height="109.5" filterUnits="userSpaceOnUse" color-interpolation-filters="sRGB">
<feFlood flood-opacity="0" result="BackgroundImageFix"/>
<feColorMatrix in="SourceAlpha" type="matrix" values="0 0 0 0 0 0 0 0 0 0 0 0 0 0 0 0 0 0 127 0" result="hardAlpha"/>
<feOffset dx="1" dy="2"/>
<feGaussianBlur stdDeviation="2"/>
<feComposite in2="hardAlpha" operator="out"/>
<feColorMatrix type="matrix" values="0 0 0 0 0 0 0 0 0 0 0 0 0 0 0 0 0 0 0.07 0"/>
<feBlend mode="normal" in2="BackgroundImageFix" result="effect1_dropShadow_1010_24244"/>
<feBlend mode="normal" in="SourceGraphic" in2="effect1_dropShadow_1010_24244" result="shape"/>
</filter>
<filter id="filter1_d_1010_24244" x="173" y="71" width="95.5" height="109.5" filterUnits="userSpaceOnUse" color-interpolation-filters="sRGB">
<feFlood flood-opacity="0" result="BackgroundImageFix"/>
<feColorMatrix in="SourceAlpha" type="matrix" values="0 0 0 0 0 0 0 0 0 0 0 0 0 0 0 0 0 0 127 0" result="hardAlpha"/>
<feOffset dx="1" dy="2"/>
<feGaussianBlur stdDeviation="2"/>
<feComposite in2="hardAlpha" operator="out"/>
<feColorMatrix type="matrix" values="0 0 0 0 0 0 0 0 0 0 0 0 0 0 0 0 0 0 0.07 0"/>
<feBlend mode="normal" in2="BackgroundImageFix" result="effect1_dropShadow_1010_24244"/>
<feBlend mode="normal" in="SourceGraphic" in2="effect1_dropShadow_1010_24244" result="shape"/>
</filter>
</defs>
</svg>
