<svg width="43" height="37" viewBox="0 0 43 37" fill="none" xmlns="http://www.w3.org/2000/svg">
<g clip-path="url(#clip0_1667_32180)">
<path d="M33.6341 0H6.17943C3.25596 0 0.885742 2.36664 0.885742 5.28571V32.3884V36.0312C0.885742 36.8719 1.88643 37.3122 2.50865 36.7454L6.45206 33.1426C6.98287 32.6574 7.67565 32.39 8.39409 32.39H36.9281C39.7938 32.39 42.1159 30.0714 42.1159 27.21V8.46899C42.1143 3.79175 38.3168 0 33.6341 0Z" fill="#DA4175"/>
</g>
<path d="M22.1512 17.496C22.3752 16.264 22.5352 14.12 22.5352 11.992V9.304H20.2312V11.992C20.2312 14.072 20.3752 16.216 20.5832 17.496H22.1512ZM21.3832 21.208C22.0712 21.208 22.6632 20.632 22.6632 19.944C22.6632 19.24 22.0712 18.664 21.3832 18.664C20.6632 18.664 20.0712 19.24 20.0712 19.944C20.0712 20.632 20.6632 21.208 21.3832 21.208Z" fill="white"/>
<defs>
<clipPath id="clip0_1667_32180">
<rect width="41.2286" height="37" fill="white" transform="translate(0.885742)"/>
</clipPath>
</defs>
</svg>
