<svg width="12" height="17" viewBox="0 0 12 17" fill="none" xmlns="http://www.w3.org/2000/svg">
<path d="M11.25 6.65H10.1V5C10.1 3.91261 9.66804 2.86976 8.89914 2.10086C8.13024 1.33196 7.08739 0.9 6 0.9C4.91261 0.9 3.86976 1.33196 3.10086 2.10086C2.33196 2.86976 1.9 3.91261 1.9 5V6.65H0.75H0.65V6.75V10.75C0.65 13.7001 3.0499 16.1 6 16.1C8.9501 16.1 11.35 13.7001 11.35 10.75V6.75V6.65H11.25ZM3.1 5C3.1 4.23087 3.40553 3.49325 3.94939 2.94939C4.49325 2.40553 5.23087 2.1 6 2.1C6.76913 2.1 7.50675 2.40553 8.05061 2.94939C8.59447 3.49325 8.9 4.23087 8.9 5V6.65H3.1V5ZM10.15 10.75C10.15 13.0382 8.28821 14.9 6 14.9C3.71179 14.9 1.85 13.0382 1.85 10.75V7.85H10.15V10.75Z" fill="#008DF0" stroke="#008DF0" stroke-width="0.2"/>
</svg>
