<svg width="43" height="37" viewBox="0 0 43 37" fill="none" xmlns="http://www.w3.org/2000/svg">
<path d="M33.6341 0H6.17943C3.25596 0 0.885742 2.36664 0.885742 5.28571V32.3884V36.0312C0.885742 36.8719 1.88643 37.3122 2.50865 36.7454L6.45206 33.1426C6.98287 32.6574 7.67565 32.39 8.39409 32.39H36.9281C39.7938 32.39 42.1159 30.0714 42.1159 27.21V8.46899C42.1143 3.79175 38.3168 0 33.6341 0Z" fill="#FFB838"/>
<path d="M23 15V20M13 10H29L27.42 24.22C27.3658 24.7094 27.1331 25.1616 26.7663 25.49C26.3994 25.8184 25.9244 26 25.432 26H16.568C16.0756 26 15.6006 25.8184 15.2337 25.49C14.8669 25.1616 14.6342 24.7094 14.58 24.22L13 10ZM16.345 7.147C16.5068 6.80397 16.7627 6.514 17.083 6.31091C17.4033 6.10782 17.7747 6 18.154 6H23.846C24.2254 5.99981 24.5971 6.10755 24.9176 6.31064C25.2381 6.51374 25.4942 6.80381 25.656 7.147L27 10H15L16.345 7.147V7.147ZM11 10H31H11ZM19 15V20V15Z" stroke="white" stroke-width="2" stroke-linecap="round" stroke-linejoin="round"/>
</svg>
