<svg width="16" height="17" viewBox="0 0 16 17" fill="none" xmlns="http://www.w3.org/2000/svg">
<g clip-path="url(#clip0_3287_8003)">
<path d="M8.00033 8.50004C9.84127 8.50004 11.3337 7.00766 11.3337 5.16671C11.3337 3.32576 9.84127 1.83337 8.00033 1.83337C6.15938 1.83337 4.66699 3.32576 4.66699 5.16671C4.66699 7.00766 6.15938 8.50004 8.00033 8.50004Z" stroke="white" stroke-width="2"/>
<path d="M11.3335 9.83337H11.5682C12.0556 9.83351 12.5262 10.0116 12.8915 10.3342C13.2568 10.6568 13.4918 11.1018 13.5522 11.5854L13.8129 13.668C13.8363 13.8557 13.8196 14.0461 13.7638 14.2268C13.708 14.4074 13.6144 14.5742 13.4893 14.7159C13.3641 14.8576 13.2103 14.9711 13.0379 15.0489C12.8655 15.1266 12.6786 15.1667 12.4895 15.1667H3.51087C3.32179 15.1667 3.13487 15.1266 2.9625 15.0489C2.79013 14.9711 2.63627 14.8576 2.51112 14.7159C2.38597 14.5742 2.29239 14.4074 2.23661 14.2268C2.18082 14.0461 2.16409 13.8557 2.18754 13.668L2.44754 11.5854C2.508 11.1015 2.74315 10.6564 3.10876 10.3338C3.47437 10.0111 3.94526 9.83319 4.43287 9.83337H4.66687" stroke="white" stroke-width="2" stroke-linecap="round" stroke-linejoin="round"/>
</g>
<defs>
<clipPath id="clip0_3287_8003">
<rect width="16" height="16" fill="white" transform="translate(0 0.5)"/>
</clipPath>
</defs>
</svg>
