<svg width="20" height="20" viewBox="0 0 20 20" fill="none" xmlns="http://www.w3.org/2000/svg">
<path d="M9.99992 10C12.3011 10 14.1666 8.13454 14.1666 5.83335C14.1666 3.53217 12.3011 1.66669 9.99992 1.66669C7.69873 1.66669 5.83325 3.53217 5.83325 5.83335C5.83325 8.13454 7.69873 10 9.99992 10Z" stroke="#828282" stroke-width="2"/>
<path d="M14.1666 11.6667H14.4599C15.0691 11.6669 15.6573 11.8895 16.114 12.2928C16.5706 12.696 16.8643 13.2522 16.9399 13.8567L17.2657 16.46C17.295 16.6945 17.2741 16.9326 17.2044 17.1584C17.1346 17.3843 17.0177 17.5927 16.8612 17.7698C16.7048 17.947 16.5125 18.0889 16.297 18.186C16.0816 18.2832 15.8479 18.3334 15.6116 18.3334H4.38822C4.15187 18.3334 3.91822 18.2832 3.70276 18.186C3.4873 18.0889 3.29497 17.947 3.13853 17.7698C2.9821 17.5927 2.86513 17.3843 2.79539 17.1584C2.72566 16.9326 2.70475 16.6945 2.73405 16.46L3.05905 13.8567C3.13463 13.2519 3.42857 12.6955 3.88558 12.2922C4.34259 11.8889 4.9312 11.6665 5.54072 11.6667H5.83322" stroke="#828282" stroke-width="2" stroke-linecap="round" stroke-linejoin="round"/>
</svg>
