<svg width="16" height="16" viewBox="0 0 16 16" fill="none" xmlns="http://www.w3.org/2000/svg">
<path d="M8.2502 8L2.8252 13.425C4.1752 14.7 6.0002 15.5 8.0002 15.5C12.1502 15.5 15.5002 12.15 15.5002 8H8.2502Z" fill="#ED4C5C"/>
<path d="M15.5002 8C15.5002 3.85 12.1502 0.5 8.0002 0.5C6.0002 0.5 4.1752 1.3 2.8252 2.575L8.2502 8H15.5002Z" fill="#428BC1"/>
<path d="M2.825 2.57501C1.4 3.95001 0.5 5.87501 0.5 8.00001C0.5 10.125 1.4 12.05 2.825 13.425L8.25 8.00001L2.825 2.57501Z" fill="#F9F9F9"/>
<path d="M3.2498 3.40001L3.0498 3.75001L3.3248 4.02501L2.9498 3.97501L2.7498 4.32501L2.6998 3.95001L2.3248 3.90001L2.6748 3.70001L2.6248 3.32501L2.8998 3.60001L3.2498 3.40001ZM3.2998 12L3.0248 12.3L3.2248 12.625L2.8748 12.475L2.5998 12.775L2.6498 12.375L2.2748 12.225L2.6748 12.15L2.7248 11.75L2.9248 12.1L3.2998 12ZM7.6248 8.00001L7.2498 8.12501V8.50001L6.9998 8.20001L6.6248 8.30001L6.8748 8.00001L6.6248 7.70001L6.9998 7.80001L7.2498 7.50001V7.87501L7.6248 8.00001ZM5.9248 7.62501L5.7748 7.50001L4.1498 7.85001H4.1748L5.6998 7.45001L5.4998 7.32501L4.1998 7.82501L5.2748 6.92501L5.2498 6.70001L4.1248 7.85001H4.0998L5.2248 6.60001L5.1998 6.42501L5.0248 6.45001L4.0248 7.75001V7.72501L4.9498 6.40001L4.7248 6.42501L4.0498 7.65001L4.2998 6.25001L4.1498 6.10001L3.9998 7.72501V7.75001L4.0498 6.05001L3.9248 5.92501L3.7998 6.05001L3.8498 7.75001V7.72501L3.7248 6.12501L3.5748 6.27501L3.8248 7.67501L3.1498 6.45001L2.9248 6.42501L3.8498 7.75001V7.77501L2.8248 6.42501L2.6498 6.40001L2.6248 6.57501L3.7498 7.82501H3.7248L2.5998 6.67501L2.5748 6.90001L3.6498 7.80001L2.3498 7.30001L2.1748 7.42501L3.6998 7.82501H3.7248L2.0748 7.50001L1.9248 7.60001L2.0248 7.75001L3.6748 7.97501H3.6498L2.0748 7.82501L2.1998 8.00001L3.5998 7.97501L2.2998 8.50001L2.2498 8.72501L3.6748 8.02501H3.6998L2.2248 8.82501L2.1748 9.00001L2.3498 9.05001L3.7748 8.15001V8.17501L2.4748 9.10001L2.6748 9.15001L3.7248 8.22501L2.9998 9.45001L3.0998 9.65001L3.7498 8.20001L3.7748 8.17501L3.1498 9.75001L3.2248 9.92501L3.3998 9.85001L3.9248 8.22501V8.25001L3.4998 9.80001L3.6998 9.70001L3.9248 8.30001L4.1498 9.70001L4.3498 9.80001L3.9248 8.25001V8.22501L4.4498 9.85001L4.6248 9.92501L4.6998 9.75001L4.0748 8.17501L4.0998 8.20001L4.7498 9.65001L4.8498 9.45001L4.1498 8.22501L5.1998 9.15001L5.3998 9.10001L4.0998 8.17501V8.15001L5.5248 9.05001L5.6998 9.00001L5.6498 8.82501L4.1748 8.02501H4.1998L5.6248 8.72501L5.5498 8.50001L4.2248 8.02501L5.6248 8.05001L5.7498 7.87501L4.1748 8.02501H4.1498L5.7998 7.80001L5.9248 7.62501Z" fill="#FFCE31"/>
</svg>