<svg width="61" height="55" viewBox="0 0 61 55" fill="none" xmlns="http://www.w3.org/2000/svg">
<g clip-path="url(#clip0_700_11451)">
<path d="M48.4473 0H7.83355C3.51159 0 0 3.52319 0 7.85942V48.1449V53.5652C0 54.8087 1.47773 55.4783 2.39932 54.6333L8.23079 49.2768C9.00938 48.5594 10.0422 48.1609 11.1068 48.1609H53.3253C57.5679 48.1609 61 44.7174 61 40.4609V12.5942C61 5.64348 55.3751 0 48.4473 0Z" fill="#008DF0"/>
<path d="M8.89819 38.8826V11.4464C8.89819 10.2986 10.2647 9.69277 11.1068 10.4739L13.9193 13.0725C14.5231 13.6623 14.9044 13.471 15.2222 13.0884C16.8906 11.0797 19.9097 10.171 22.9922 10.2189C27.203 10.2826 29.4275 12.387 30.8893 15.5913C32.2876 12.387 35.7198 10.2029 39.9305 10.2029C47.7005 10.2029 51.8318 14.2522 51.8318 20.6768V38.8667H45.0469V22.4942C45.0469 18.4928 42.9177 16.4044 39.6604 16.4044C36.3553 16.4044 33.8289 18.5406 33.8289 23.1V38.8667H26.9805V22.4304C26.9805 18.5406 24.899 16.4681 21.6416 16.4681C18.3843 16.4681 15.7466 18.6044 15.7466 23.116V38.8826H8.89819Z" fill="white"/>
</g>
<defs>
<clipPath id="clip0_700_11451">
<rect width="61" height="55" fill="white"/>
</clipPath>
</defs>
</svg>
